<svg xmlns="http://www.w3.org/2000/svg" viewBox="0 0 512 512">
  <!-- Head -->
  <circle cx="256" cy="118" r="52" fill="#0F766E"/>

  <!-- Left monitor -->
  <g transform="rotate(-12, 162, 310)">
    <rect x="85" y="210" width="154" height="200" rx="14" fill="#0F766E"/>
    <rect x="97" y="222" width="130" height="176" rx="8" fill="#99F6E4"/>
    <!-- Cursor blink -->
    <rect x="114" y="242" width="3" height="22" fill="#115E59"/>
    <!-- Code lines -->
    <rect x="124" y="244" width="52" height="5" rx="2" fill="#115E59" opacity="0.3"/>
    <rect x="124" y="258" width="38" height="5" rx="2" fill="#115E59" opacity="0.2"/>
    <rect x="114" y="276" width="65" height="5" rx="2" fill="#115E59" opacity="0.3"/>
    <rect x="114" y="290" width="48" height="5" rx="2" fill="#115E59" opacity="0.2"/>
    <rect x="124" y="308" width="55" height="5" rx="2" fill="#115E59" opacity="0.3"/>
  </g>

  <!-- Right monitor -->
  <g transform="rotate(12, 350, 310)">
    <rect x="273" y="210" width="154" height="200" rx="14" fill="#0F766E"/>
    <rect x="285" y="222" width="130" height="176" rx="8" fill="#99F6E4"/>
    <!-- Code lines -->
    <rect x="302" y="244" width="58" height="5" rx="2" fill="#115E59" opacity="0.3"/>
    <rect x="302" y="258" width="42" height="5" rx="2" fill="#115E59" opacity="0.2"/>
    <rect x="302" y="276" width="50" height="5" rx="2" fill="#115E59" opacity="0.3"/>
    <rect x="302" y="290" width="68" height="5" rx="2" fill="#115E59" opacity="0.2"/>
    <rect x="302" y="308" width="40" height="5" rx="2" fill="#115E59" opacity="0.3"/>
  </g>

  <!-- Keyboard -->
  <rect x="206" y="436" width="100" height="14" rx="7" fill="#0F766E" opacity="0.5"/>
</svg>
